<?xml version="1.0" encoding="iso-8859-1"?>
<!-- Generator: Adobe Illustrator 19.0.0, SVG Export Plug-In . SVG Version: 6.00 Build 0)  -->
<svg version="1.1" id="Capa_1" xmlns="http://www.w3.org/2000/svg" xmlns:xlink="http://www.w3.org/1999/xlink" x="0px" y="0px"
	 viewBox="0 0 512 512" style="enable-background:new 0 0 512 512;" xml:space="preserve">
<g>
	<g>
		<path d="M170.667,170.667C76.41,170.667,0,247.077,0,341.333S76.41,512,170.667,512c94.21-0.112,170.555-76.456,170.667-170.667
			C341.333,247.077,264.923,170.667,170.667,170.667z M170.667,490.667c-82.475,0-149.333-66.859-149.333-149.333
			S88.192,192,170.667,192c82.438,0.088,149.245,66.895,149.333,149.333C320,423.808,253.141,490.667,170.667,490.667z"/>
	</g>
</g>
<g>
	<g>
		<path d="M416,0c-53.019,0-96,42.981-96,96s42.981,96,96,96c52.995-0.059,95.941-43.005,96-96C512,42.981,469.019,0,416,0z
			 M416,170.667c-41.237,0-74.667-33.429-74.667-74.667S374.763,21.333,416,21.333C457.218,21.38,490.62,54.782,490.667,96
			C490.667,137.237,457.237,170.667,416,170.667z"/>
	</g>
</g>
<g>
	<g>
		
			<rect x="259.661" y="181.33" transform="matrix(0.7071 -0.7071 0.7071 0.7071 -42.0354 282.5108)" width="120.683" height="21.333"/>
	</g>
</g>
<g>
	<g>
		<path d="M448,384c-35.346,0-64,28.654-64,64c0,35.346,28.654,64,64,64c35.332-0.035,63.965-28.668,64-64
			C512,412.654,483.346,384,448,384z M448,490.667c-23.564,0-42.667-19.102-42.667-42.667c0-23.564,19.102-42.667,42.667-42.667
			c23.564,0,42.667,19.102,42.667,42.667C490.667,471.564,471.564,490.667,448,490.667z"/>
	</g>
</g>
<g>
	<g>
		
			<rect x="351.994" y="365.093" transform="matrix(0.3511 -0.9363 0.9363 0.3511 -149.1868 606.046)" width="21.344" height="91.136"/>
	</g>
</g>
<g>
	<g>
		<path d="M248.704,416.555c-15.648-5.194-31.015-11.201-46.037-17.995v-0.491c26.022-12.369,42.62-38.591,42.667-67.403v-32
			c0-41.237-33.429-74.667-74.667-74.667S96,257.429,96,298.667v32c0.046,28.812,16.645,55.034,42.667,67.403v0.491
			c-15.023,6.794-30.389,12.8-46.037,17.995c-38.848,12.949-39.296,40.928-39.296,42.112l21.333,0.288
			c0-0.576,1.067-14.293,24.704-22.123c18.698-6.109,36.98-13.423,54.731-21.899c3.634-1.816,5.921-5.538,5.899-9.6v-14.389
			c-0.003-4.515-2.848-8.54-7.104-10.048c-21.277-7.546-35.513-27.654-35.563-50.229v-32c0-29.455,23.878-53.333,53.333-53.333
			S224,269.211,224,298.667v32c-0.049,22.576-14.285,42.683-35.563,50.229c-4.256,1.508-7.101,5.533-7.104,10.048v14.389
			c-0.022,4.062,2.265,7.784,5.899,9.6c17.749,8.457,36.027,15.754,54.72,21.845c23.648,7.883,24.715,21.6,24.715,22.176
			l10.667-0.288H288C288,457.483,287.552,429.504,248.704,416.555z"/>
	</g>
</g>
<g>
	<g>
		<path d="M362.667,96H384c0-17.673,14.327-32,32-32V42.667C386.559,42.702,362.702,66.559,362.667,96z"/>
	</g>
</g>
<g>
	<g>
		<rect x="437.333" y="437.333" width="21.333" height="21.333"/>
	</g>
</g>
<g>
	<g>
		<rect x="266.667" y="330.667" width="21.333" height="21.333"/>
	</g>
</g>
<g>
	<g>
		<rect x="42.667" y="330.667" width="21.333" height="21.333"/>
	</g>
</g>
<g>
</g>
<g>
</g>
<g>
</g>
<g>
</g>
<g>
</g>
<g>
</g>
<g>
</g>
<g>
</g>
<g>
</g>
<g>
</g>
<g>
</g>
<g>
</g>
<g>
</g>
<g>
</g>
<g>
</g>
</svg>
